<svg width="20" height="21" viewBox="0 0 20 21" fill="none" xmlns="http://www.w3.org/2000/svg">
<g id="north_east">
<mask id="mask0_74_27" style="mask-type:alpha" maskUnits="userSpaceOnUse" x="0" y="0" width="20" height="21">
<rect id="Bounding box" y="0.454956" width="20" height="20" fill="#D9D9D9"/>
</mask>
<g mask="url(#mask0_74_27)">
<path id="north_east_2" d="M14.167 7.45492L5.08368 16.5382C4.93091 16.691 4.73646 16.7674 4.50035 16.7674C4.26424 16.7674 4.0698 16.691 3.91702 16.5382C3.76424 16.3855 3.68785 16.191 3.68785 15.9549C3.68785 15.7188 3.76424 15.5244 3.91702 15.3716L13.0004 6.28825H8.33368C8.09757 6.28825 7.89966 6.20839 7.73993 6.04867C7.58021 5.88894 7.50035 5.69103 7.50035 5.45492C7.50035 5.2188 7.58021 5.02089 7.73993 4.86117C7.89966 4.70144 8.09757 4.62158 8.33368 4.62158H15.0004C15.2365 4.62158 15.4344 4.70144 15.5941 4.86117C15.7538 5.02089 15.8337 5.2188 15.8337 5.45492V12.1216C15.8337 12.3577 15.7538 12.5556 15.5941 12.7153C15.4344 12.8751 15.2365 12.9549 15.0004 12.9549C14.7642 12.9549 14.5663 12.8751 14.4066 12.7153C14.2469 12.5556 14.167 12.3577 14.167 12.1216V7.45492Z" fill="black"/>
</g>
</g>
</svg>
