<svg width="20" height="21" viewBox="0 0 20 21" fill="none" xmlns="http://www.w3.org/2000/svg">
<mask id="mask0_72_349" style="mask-type:alpha" maskUnits="userSpaceOnUse" x="0" y="0" width="20" height="21">
<rect y="0.954956" width="20" height="20" fill="#D9D9D9"/>
</mask>
<g mask="url(#mask0_72_349)">
<path d="M14.167 7.95498L5.0837 17.0383C4.93092 17.1911 4.73648 17.2675 4.50037 17.2675C4.26426 17.2675 4.06981 17.1911 3.91703 17.0383C3.76426 16.8855 3.68787 16.6911 3.68787 16.455C3.68787 16.2189 3.76426 16.0244 3.91703 15.8716L13.0004 6.78831H8.3337C8.09759 6.78831 7.89967 6.70845 7.73995 6.54873C7.58023 6.389 7.50037 6.19109 7.50037 5.95498C7.50037 5.71887 7.58023 5.52095 7.73995 5.36123C7.89967 5.2015 8.09759 5.12164 8.3337 5.12164H15.0004C15.2365 5.12164 15.4344 5.2015 15.5941 5.36123C15.7538 5.52095 15.8337 5.71887 15.8337 5.95498V12.6216C15.8337 12.8578 15.7538 13.0557 15.5941 13.2154C15.4344 13.3751 15.2365 13.455 15.0004 13.455C14.7643 13.455 14.5663 13.3751 14.4066 13.2154C14.2469 13.0557 14.167 12.8578 14.167 12.6216V7.95498Z" fill="white"/>
</g>
</svg>
