<svg width="18" height="18" viewBox="0 0 18 18" fill="none" xmlns="http://www.w3.org/2000/svg">
<path d="M15.2378 3.11656C14.0905 2.59015 12.8602 2.20231 11.5739 1.98018C11.5505 1.97589 11.5271 1.98661 11.515 2.00803C11.3568 2.28945 11.1815 2.65657 11.0588 2.94513C9.6753 2.738 8.29889 2.738 6.94374 2.94513C6.82099 2.65016 6.63936 2.28945 6.48043 2.00803C6.46836 1.98732 6.44496 1.97661 6.42154 1.98018C5.13593 2.2016 3.90567 2.58944 2.7577 3.11656C2.74776 3.12084 2.73924 3.12799 2.73359 3.13727C0.400044 6.62354 -0.239213 10.0241 0.0743851 13.3825C0.075804 13.399 0.0850274 13.4147 0.0977985 13.4247C1.63741 14.5553 3.12878 15.2417 4.59246 15.6967C4.61588 15.7039 4.6407 15.6953 4.65561 15.676C5.00184 15.2032 5.31048 14.7046 5.57511 14.1803C5.59072 14.1496 5.57582 14.1132 5.5439 14.1011C5.05435 13.9154 4.5882 13.6889 4.1398 13.4318C4.10433 13.4111 4.10149 13.3604 4.13412 13.3361C4.22848 13.2654 4.32286 13.1918 4.41297 13.1175C4.42927 13.104 4.45198 13.1011 4.47115 13.1097C7.41696 14.4546 10.6062 14.4546 13.5172 13.1097C13.5364 13.1004 13.5591 13.1033 13.5761 13.1168C13.6662 13.1911 13.7606 13.2654 13.8557 13.3361C13.8883 13.3604 13.8862 13.4111 13.8507 13.4318C13.4023 13.6939 12.9361 13.9154 12.4459 14.1004C12.414 14.1125 12.3998 14.1496 12.4154 14.1803C12.6857 14.7039 12.9943 15.2024 13.3342 15.6753C13.3484 15.6953 13.3739 15.7039 13.3973 15.6967C14.8681 15.2417 16.3595 14.5553 17.8991 13.4247C17.9126 13.4147 17.9211 13.3997 17.9225 13.3833C18.2978 9.50055 17.2939 6.12786 15.2612 3.13798C15.2562 3.12799 15.2477 3.12084 15.2378 3.11656ZM6.01502 11.3376C5.12812 11.3376 4.39735 10.5234 4.39735 9.52342C4.39735 8.52345 5.11395 7.70922 6.01502 7.70922C6.92315 7.70922 7.64686 8.5306 7.63266 9.52342C7.63266 10.5234 6.91606 11.3376 6.01502 11.3376ZM11.9961 11.3376C11.1092 11.3376 10.3784 10.5234 10.3784 9.52342C10.3784 8.52345 11.095 7.70922 11.9961 7.70922C12.9042 7.70922 13.6279 8.5306 13.6137 9.52342C13.6137 10.5234 12.9042 11.3376 11.9961 11.3376Z" fill="white"/>
</svg>
