<svg width="19" height="18" viewBox="0 0 19 18" fill="none" xmlns="http://www.w3.org/2000/svg">
<g clip-path="url(#clip0_72_403)">
<path d="M3.45701 2.76224C2.9306 3.9095 2.54276 5.13976 2.32063 6.42608C2.31635 6.4495 2.32706 6.4729 2.34849 6.48497C2.6299 6.64319 2.99702 6.81845 3.28558 6.94118C3.07845 8.3247 3.07845 9.70111 3.28558 11.0563C2.99061 11.179 2.6299 11.3606 2.34849 11.5196C2.32778 11.5316 2.31706 11.555 2.32063 11.5785C2.54205 12.8641 2.92989 14.0943 3.45701 15.2423C3.4613 15.2522 3.46845 15.2608 3.47772 15.2664C6.964 17.6 10.3646 18.2392 13.723 17.9256C13.7394 17.9242 13.7551 17.915 13.7651 17.9022C14.8958 16.3626 15.5822 14.8712 16.0372 13.4075C16.0443 13.3841 16.0357 13.3593 16.0164 13.3444C15.5436 12.9982 15.0451 12.6895 14.5208 12.4249C14.4901 12.4093 14.4537 12.4242 14.4415 12.4561C14.2558 12.9457 14.0294 13.4118 13.7723 13.8602C13.7516 13.8957 13.7008 13.8985 13.6766 13.8659C13.6058 13.7715 13.5323 13.6771 13.458 13.587C13.4444 13.5707 13.4416 13.548 13.4501 13.5289C14.7951 10.583 14.7951 7.39384 13.4501 4.48279C13.4409 4.46362 13.4437 4.4409 13.4573 4.42389C13.5316 4.33377 13.6058 4.23941 13.6766 4.14434C13.7008 4.11171 13.7516 4.11384 13.7723 4.1493C14.0344 4.59771 14.2558 5.06386 14.4408 5.55412C14.453 5.58603 14.4901 5.60023 14.5208 5.58461C15.0443 5.31431 15.5429 5.00567 16.0157 4.66583C16.0357 4.65163 16.0443 4.6261 16.0372 4.60268C15.5822 3.1319 14.8958 1.64054 13.7651 0.100927C13.7551 0.08744 13.7401 0.0789218 13.7237 0.0775027C9.841 -0.29781 6.46831 0.706133 3.47843 2.73884C3.46845 2.74381 3.4613 2.7523 3.45701 2.76224ZM11.6781 11.985C11.6781 12.8719 10.8638 13.6027 9.86387 13.6027C8.86391 13.6027 8.04967 12.886 8.04967 11.985C8.04967 11.0768 8.87106 10.3531 9.86387 10.3673C10.8638 10.3673 11.6781 11.0839 11.6781 11.985ZM11.6781 6.00394C11.6781 6.89081 10.8638 7.62158 9.86387 7.62158C8.86391 7.62158 8.04967 6.905 8.04967 6.00394C8.04967 5.09578 8.87106 4.3721 9.86387 4.38627C10.8638 4.38627 11.6781 5.09578 11.6781 6.00394Z" fill="white"/>
</g>
<defs>
<clipPath id="clip0_72_403">
<rect width="18" height="18" fill="white" transform="translate(0.340332 18) rotate(-90)"/>
</clipPath>
</defs>
</svg>
