<svg width="19" height="18" viewBox="0 0 19 18" fill="none" xmlns="http://www.w3.org/2000/svg">
<g clip-path="url(#clip0_72_397)">
<path d="M0.340332 9C0.340332 13.9705 4.36981 18 9.34033 18C13.561 18 17.1027 15.0941 18.0754 11.174L12.0907 11.174L12.0907 13.0298L9.34033 13.0298L9.34033 11.174L8.15521 11.174C5.09197 11.174 3.67213 9.78768 3.67213 6.78024C3.67213 6.21 3.78409 5.22612 3.89569 4.82364L6.38869 4.82364C6.36637 5.03604 6.35521 5.40504 6.35521 5.86332C6.35521 7.33896 6.91429 7.9092 8.36761 7.9092L9.34033 7.9092L9.34033 4.96944L12.0907 5.47452L12.0907 7.9092L18.2745 7.9092C17.7363 3.45276 13.9419 -0.000361083 9.34033 -0.000360882C4.36981 -1.76134e-07 0.340331 4.02948 0.340332 9Z" fill="white"/>
</g>
<defs>
<clipPath id="clip0_72_397">
<rect width="18" height="18" fill="white" transform="translate(0.340332 18) rotate(-90)"/>
</clipPath>
</defs>
</svg>
