<svg width="18" height="18" viewBox="0 0 18 18" fill="none" xmlns="http://www.w3.org/2000/svg">
<g clip-path="url(#clip0_93_466)">
<path d="M9 -0.000244141C4.02948 -0.000244141 0 4.02924 0 8.99976C0 13.2204 2.90592 16.7621 6.82596 17.7348V11.7502H4.97016V8.99976H6.82596V7.81464C6.82596 4.7514 8.21232 3.33156 11.2198 3.33156C11.79 3.33156 12.7739 3.44352 13.1764 3.55512V6.04812C12.964 6.0258 12.595 6.01464 12.1367 6.01464C10.661 6.01464 10.0908 6.57372 10.0908 8.02704V8.99976H13.0306L12.5255 11.7502H10.0908V17.9339C14.5472 17.3957 18.0004 13.6013 18.0004 8.99976C18 4.02924 13.9705 -0.000244141 9 -0.000244141Z" fill="white"/>
</g>
<defs>
<clipPath id="clip0_93_466">
<rect width="18" height="18" fill="white" transform="translate(0 -0.000244141)"/>
</clipPath>
</defs>
</svg>
