<svg width="24" height="24" viewBox="0 0 24 24" fill="none" xmlns="http://www.w3.org/2000/svg">
<path d="M16.2266 19.9482C14.9257 20.6412 13.4739 21.0025 12 20.9999C7.02941 20.9999 2.99998 16.9705 2.99998 11.9999C2.99998 7.02938 7.02941 2.99995 12 2.99995C16.9706 2.99995 21 7.02938 21 11.9999C21 13.5299 20.6186 14.9691 19.9466 16.2291C19.7898 16.5226 19.7529 16.8655 19.8437 17.1857L20.9014 20.9031L17.1831 19.8462C16.8631 19.7552 16.5202 19.7917 16.2266 19.9482ZM12 22.2857C13.685 22.2881 15.3446 21.8747 16.8317 21.0822L20.9203 22.2454C21.1038 22.2975 21.2979 22.2997 21.4826 22.2517C21.6673 22.2037 21.8357 22.1073 21.9707 21.9723C22.1056 21.8374 22.202 21.6689 22.25 21.4843C22.298 21.2996 22.2958 21.1055 22.2437 20.9219L21.0814 16.8334C21.8744 15.3459 22.2881 13.6856 22.2857 11.9999C22.2857 6.31966 17.6803 1.71423 12 1.71423C6.3197 1.71423 1.71427 6.31966 1.71427 11.9999C1.71427 17.6802 6.3197 22.2857 12 22.2857ZM15.8571 10.0714C15.8571 9.90088 15.7894 9.73737 15.6688 9.61681C15.5483 9.49625 15.3848 9.42852 15.2143 9.42852H8.7857C8.6152 9.42852 8.45169 9.49625 8.33113 9.61681C8.21057 9.73737 8.14284 9.90088 8.14284 10.0714C8.14284 10.2419 8.21057 10.4054 8.33113 10.5259C8.45169 10.6465 8.6152 10.7142 8.7857 10.7142H15.2143C15.3848 10.7142 15.5483 10.6465 15.6688 10.5259C15.7894 10.4054 15.8571 10.2419 15.8571 10.0714ZM15.8571 13.9285C15.8571 13.758 15.7894 13.5945 15.6688 13.474C15.5483 13.3534 15.3848 13.2857 15.2143 13.2857H11.3571C11.1866 13.2857 11.0231 13.3534 10.9026 13.474C10.782 13.5945 10.7143 13.758 10.7143 13.9285C10.7143 14.099 10.782 14.2625 10.9026 14.3831C11.0231 14.5036 11.1866 14.5714 11.3571 14.5714H15.2143C15.3848 14.5714 15.5483 14.5036 15.6688 14.3831C15.7894 14.2625 15.8571 14.099 15.8571 13.9285Z" fill="black"/>
</svg>
