<svg width="19" height="18" viewBox="0 0 19 18" fill="none" xmlns="http://www.w3.org/2000/svg">
<g clip-path="url(#clip0_72_388)">
<path d="M1.96103 9C1.96103 6.59531 1.97158 6.31055 2.01377 5.36484C2.05244 4.48594 2.2001 4.01133 2.32314 3.69492C2.48486 3.27656 2.68174 2.97422 2.99463 2.66133C3.31103 2.34492 3.60986 2.15156 4.02822 1.98984C4.34463 1.8668 4.82275 1.71914 5.69814 1.68047C6.64736 1.63828 6.93213 1.62773 9.3333 1.62773C11.738 1.62773 12.0228 1.63828 12.9685 1.68047C13.8474 1.71914 14.322 1.8668 14.6384 1.98984C15.0567 2.15156 15.3591 2.34844 15.672 2.66133C15.9884 2.97773 16.1817 3.27656 16.3435 3.69492C16.4665 4.01133 16.6142 4.48945 16.6528 5.36484C16.695 6.31406 16.7056 6.59883 16.7056 9C16.7056 11.4047 16.695 11.6895 16.6528 12.6352C16.6142 13.5141 16.4665 13.9887 16.3435 14.3051C16.1817 14.7234 15.9849 15.0258 15.672 15.3387C15.3556 15.6551 15.0567 15.8484 14.6384 16.0102C14.322 16.1332 13.8438 16.2809 12.9685 16.3195C12.0192 16.3617 11.7345 16.3723 9.3333 16.3723C6.92861 16.3723 6.64385 16.3617 5.69814 16.3195C4.81924 16.2809 4.34463 16.1332 4.02822 16.0102C3.60986 15.8484 3.30752 15.6516 2.99463 15.3387C2.67822 15.0223 2.48486 14.7234 2.32314 14.3051C2.2001 13.9887 2.05244 13.5105 2.01377 12.6352C1.97158 11.6895 1.96103 11.4047 1.96103 9ZM0.340332 9C0.340332 11.4434 0.350879 11.7492 0.393066 12.709C0.435254 13.6652 0.589941 14.3227 0.811426 14.8922C1.04346 15.4863 1.34932 15.9891 1.85205 16.4883C2.35127 16.991 2.854 17.2969 3.44463 17.5289C4.01768 17.7504 4.67158 17.9051 5.62783 17.9473C6.59111 17.9895 6.89697 18 9.34033 18C11.7837 18 12.0896 17.9895 13.0493 17.9473C14.0056 17.9051 14.663 17.7504 15.2325 17.5289C15.8267 17.2969 16.3294 16.991 16.8286 16.4883C17.3278 15.9891 17.6372 15.4863 17.8657 14.8957C18.0872 14.3227 18.2419 13.6687 18.2841 12.7125C18.3263 11.7527 18.3368 11.4469 18.3368 9.00351C18.3368 6.56016 18.3263 6.2543 18.2841 5.29453C18.2419 4.33828 18.0872 3.68086 17.8657 3.11133C17.6372 2.5207 17.3278 2.01797 16.8286 1.51875C16.3294 1.01953 15.8267 0.710155 15.236 0.481639C14.663 0.260156 14.0091 0.105466 13.0528 0.0632795C12.0931 0.0210929 11.7872 0.0105452 9.34385 0.0105453C6.90049 0.0105454 6.59463 0.0210931 5.63486 0.0632799C4.67861 0.105467 4.02119 0.260156 3.45166 0.48164C2.854 0.703125 2.35127 1.00898 1.85205 1.51172C1.35283 2.01094 1.04346 2.51367 0.814941 3.1043C0.593456 3.67734 0.438769 4.33125 0.396581 5.2875C0.350878 6.25078 0.340332 6.55664 0.340332 9Z" fill="white"/>
<path d="M4.71728 9C4.71729 11.5523 6.78799 13.623 9.34033 13.623C11.8927 13.623 13.9634 11.5523 13.9634 9C13.9634 6.44766 11.8927 4.37695 9.34033 4.37695C6.78799 4.37695 4.71728 6.44766 4.71728 9ZM12.3392 9C12.3392 10.6559 10.9962 11.9988 9.34033 11.9988C7.68447 11.9988 6.3415 10.6559 6.3415 9C6.3415 7.34414 7.68447 6.00117 9.34033 6.00117C10.9962 6.00117 12.3392 7.34414 12.3392 9Z" fill="white"/>
<path d="M4.53444 3.11484C5.13209 3.11484 5.61374 3.6 5.61374 4.19414C5.61374 4.7918 5.12858 5.27344 4.53444 5.27344C3.93678 5.27344 3.45514 4.78828 3.45514 4.19414C3.45514 3.6 3.9403 3.11484 4.53444 3.11484Z" fill="white"/>
</g>
<defs>
<clipPath id="clip0_72_388">
<rect width="18" height="18" fill="white" transform="translate(0.340332 18) rotate(-90)"/>
</clipPath>
</defs>
</svg>
