<svg width="18" height="18" viewBox="0 0 18 18" fill="none" xmlns="http://www.w3.org/2000/svg">
<g clip-path="url(#clip0_93_457)">
<path d="M9 1.62046C11.4047 1.62046 11.6895 1.63101 12.6352 1.67319C13.5141 1.71186 13.9887 1.85952 14.3051 1.98257C14.7234 2.14429 15.0258 2.34116 15.3387 2.65405C15.6551 2.97046 15.8484 3.26929 16.0102 3.68765C16.1332 4.00405 16.2809 4.48218 16.3195 5.35757C16.3617 6.30679 16.3723 6.59155 16.3723 8.99272C16.3723 11.3974 16.3617 11.6822 16.3195 12.6279C16.2809 13.5068 16.1332 13.9814 16.0102 14.2978C15.8484 14.7162 15.6516 15.0185 15.3387 15.3314C15.0223 15.6478 14.7234 15.8412 14.3051 16.0029C13.9887 16.1259 13.5105 16.2736 12.6352 16.3123C11.6859 16.3544 11.4012 16.365 9 16.365C6.59531 16.365 6.31055 16.3544 5.36484 16.3123C4.48594 16.2736 4.01133 16.1259 3.69492 16.0029C3.27656 15.8412 2.97422 15.6443 2.66133 15.3314C2.34492 15.015 2.15156 14.7162 1.98984 14.2978C1.8668 13.9814 1.71914 13.5033 1.68047 12.6279C1.63828 11.6787 1.62773 11.3939 1.62773 8.99272C1.62773 6.58804 1.63828 6.30327 1.68047 5.35757C1.71914 4.47866 1.8668 4.00405 1.98984 3.68765C2.15156 3.26929 2.34844 2.96694 2.66133 2.65405C2.97773 2.33765 3.27656 2.14429 3.69492 1.98257C4.01133 1.85952 4.48945 1.71186 5.36484 1.67319C6.31055 1.63101 6.59531 1.62046 9 1.62046ZM9 -0.000244141C6.55664 -0.000244141 6.25078 0.0103027 5.29102 0.0524902C4.33477 0.0946777 3.67734 0.249365 3.10781 0.47085C2.51367 0.702881 2.01094 1.00874 1.51172 1.51147C1.00898 2.01069 0.703125 2.51343 0.471094 3.10405C0.249609 3.6771 0.0949219 4.33101 0.0527344 5.28726C0.0105469 6.25054 0 6.5564 0 8.99975C0 11.4431 0.0105469 11.749 0.0527344 12.7087C0.0949219 13.665 0.249609 14.3224 0.471094 14.8919C0.703125 15.4861 1.00898 15.9888 1.51172 16.488C2.01094 16.9873 2.51367 17.2966 3.1043 17.5251C3.67734 17.7466 4.33125 17.9013 5.2875 17.9435C6.24727 17.9857 6.55312 17.9962 8.99648 17.9962C11.4398 17.9962 11.7457 17.9857 12.7055 17.9435C13.6617 17.9013 14.3191 17.7466 14.8887 17.5251C15.4793 17.2966 15.982 16.9873 16.4813 16.488C16.9805 15.9888 17.2898 15.4861 17.5184 14.8955C17.7398 14.3224 17.8945 13.6685 17.9367 12.7123C17.9789 11.7525 17.9895 11.4466 17.9895 9.00327C17.9895 6.55991 17.9789 6.25405 17.9367 5.29429C17.8945 4.33804 17.7398 3.68061 17.5184 3.11108C17.2969 2.51343 16.991 2.01069 16.4883 1.51147C15.9891 1.01226 15.4863 0.702881 14.8957 0.474365C14.3227 0.252881 13.6688 0.0981934 12.7125 0.0560059C11.7492 0.0103027 11.4434 -0.000244141 9 -0.000244141Z" fill="white"/>
<path d="M9 4.37671C6.44766 4.37671 4.37695 6.44741 4.37695 8.99976C4.37695 11.5521 6.44766 13.6228 9 13.6228C11.5523 13.6228 13.623 11.5521 13.623 8.99976C13.623 6.44741 11.5523 4.37671 9 4.37671ZM9 11.9986C7.34414 11.9986 6.00117 10.6556 6.00117 8.99976C6.00117 7.3439 7.34414 6.00093 9 6.00093C10.6559 6.00093 11.9988 7.3439 11.9988 8.99976C11.9988 10.6556 10.6559 11.9986 9 11.9986Z" fill="white"/>
<path d="M14.8852 4.1938C14.8852 4.79146 14.4 5.2731 13.8059 5.2731C13.2082 5.2731 12.7266 4.78794 12.7266 4.1938C12.7266 3.59614 13.2117 3.1145 13.8059 3.1145C14.4 3.1145 14.8852 3.59966 14.8852 4.1938Z" fill="white"/>
</g>
<defs>
<clipPath id="clip0_93_457">
<rect width="18" height="18" fill="white" transform="translate(0 -0.000244141)"/>
</clipPath>
</defs>
</svg>
