<svg width="19" height="18" viewBox="0 0 19 18" fill="none" xmlns="http://www.w3.org/2000/svg">
<g clip-path="url(#clip0_72_394)">
<path d="M0.340331 1.33242L0.340332 16.6711C0.340332 17.4059 0.92041 18 1.6376 18L17.0396 18C17.7567 18 18.3403 17.4059 18.3403 16.6711L18.3403 1.33242C18.3403 0.597655 17.7567 -7.61295e-07 17.0431 -7.301e-07L1.6376 -5.67053e-08C0.920409 -2.5356e-08 0.340331 0.597656 0.340331 1.33242ZM15.679 12.6598L15.679 15.3316L7.08682 15.3316L7.08682 12.6598L15.679 12.6598ZM5.91611 13.9957C5.91611 14.8535 5.22353 15.5461 4.36924 15.5461C3.51494 15.5461 2.82236 14.8535 2.82236 13.9957C2.82236 13.1414 3.51494 12.4488 4.36924 12.4488C5.22002 12.4488 5.91611 13.1414 5.91611 13.9957ZM15.679 2.66133L15.679 5.32969L11.5024 5.32969C10.5075 5.32969 9.22432 5.34727 9.22432 6.71836C9.22432 8.10703 10.3106 8.31797 11.4321 8.31797L15.679 8.31797L15.679 10.9828L7.08682 10.9828L7.08682 8.42344L8.26104 8.42344L8.26104 8.38828C7.58603 8.0332 6.87236 7.16133 6.87236 5.86406C6.87236 3.16055 8.65127 2.66133 10.9646 2.66133L15.679 2.66133Z" fill="white"/>
</g>
<defs>
<clipPath id="clip0_72_394">
<rect width="18" height="18" fill="white" transform="translate(0.340332 18) rotate(-90)"/>
</clipPath>
</defs>
</svg>
