<svg width="18" height="18" viewBox="0 0 18 18" fill="none" xmlns="http://www.w3.org/2000/svg">
<g clip-path="url(#clip0_93_463)">
<path d="M16.6676 -0.000244141H1.32891C0.594141 -0.000244141 0 0.579834 0 1.29702V16.699C0 17.4162 0.594141 17.9998 1.32891 17.9998H16.6676C17.4023 17.9998 18 17.4162 18 16.7025V1.29702C18 0.579834 17.4023 -0.000244141 16.6676 -0.000244141ZM5.34023 15.3384H2.66836V6.74624H5.34023V15.3384ZM4.0043 5.57554C3.14648 5.57554 2.45391 4.88296 2.45391 4.02866C2.45391 3.17437 3.14648 2.48179 4.0043 2.48179C4.85859 2.48179 5.55117 3.17437 5.55117 4.02866C5.55117 4.87944 4.85859 5.57554 4.0043 5.57554ZM15.3387 15.3384H12.6703V11.1619C12.6703 10.1669 12.6527 8.88374 11.2816 8.88374C9.89297 8.88374 9.68203 9.97007 9.68203 11.0916V15.3384H7.01719V6.74624H9.57656V7.92046H9.61172C9.9668 7.24546 10.8387 6.53179 12.1359 6.53179C14.8395 6.53179 15.3387 8.31069 15.3387 10.624V15.3384Z" fill="white"/>
</g>
<defs>
<clipPath id="clip0_93_463">
<rect width="18" height="18" fill="white" transform="translate(0 -0.000244141)"/>
</clipPath>
</defs>
</svg>
