<svg width="18" height="18" viewBox="0 0 18 18" fill="none" xmlns="http://www.w3.org/2000/svg">
<path d="M0 17.9998L1.26525 13.3775C0.484499 12.0245 0.0742498 10.4908 0.0749998 8.91801C0.0772498 4.00101 4.07849 -0.000244141 8.99473 -0.000244141C11.3805 0.000505859 13.62 0.929756 15.3045 2.61576C16.9882 4.30176 17.9152 6.54276 17.9145 8.92626C17.9122 13.844 13.911 17.8453 8.99473 17.8453C7.50223 17.8445 6.03149 17.4703 4.72874 16.7593L0 17.9998ZM4.94774 15.1445C6.20474 15.8908 7.40473 16.3378 8.99173 16.3385C13.0777 16.3385 16.4062 13.013 16.4085 8.92476C16.41 4.82826 13.0972 1.50726 8.99773 1.50576C4.90874 1.50576 1.5825 4.83126 1.581 8.91876C1.58025 10.5875 2.06925 11.837 2.89049 13.1443L2.14125 15.8803L4.94774 15.1445ZM13.488 11.0465C13.4325 10.9535 13.284 10.898 13.0605 10.7863C12.8377 10.6745 11.742 10.1353 11.5372 10.061C11.3332 9.98676 11.1847 9.94926 11.0355 10.1728C10.887 10.3955 10.4595 10.898 10.3297 11.0465C10.2 11.195 10.0695 11.2138 9.84673 11.102C9.62398 10.9903 8.90548 10.7555 8.05423 9.99576C7.39198 9.40476 6.94423 8.67501 6.81448 8.45151C6.68473 8.22876 6.80098 8.10801 6.91198 7.99701C7.01248 7.89726 7.13473 7.73676 7.24648 7.60626C7.35973 7.47726 7.39648 7.38426 7.47148 7.23501C7.54573 7.08651 7.50898 6.95601 7.45273 6.84426C7.39648 6.73326 6.95098 5.63601 6.76573 5.18976C6.58424 4.75551 6.40049 4.81401 6.26399 4.80726L5.83649 4.79976C5.68799 4.79976 5.44649 4.85526 5.24249 5.07876C5.03849 5.30226 4.46249 5.84076 4.46249 6.93801C4.46249 8.03526 5.26124 9.09501 5.37224 9.24351C5.48399 9.39201 6.94348 11.6435 9.17923 12.6088C9.71098 12.8383 10.1265 12.9755 10.4497 13.0783C10.9837 13.2478 11.4697 13.2238 11.8537 13.1668C12.282 13.103 13.1722 12.6275 13.3582 12.107C13.5442 11.5858 13.5442 11.1395 13.488 11.0465Z" fill="white"/>
</svg>
