<svg width="19" height="18" viewBox="0 0 19 18" fill="none" xmlns="http://www.w3.org/2000/svg">
<path d="M18.3403 18L13.7181 16.7348C12.3651 17.5155 10.8313 17.9257 9.25858 17.925C4.34158 17.9227 0.340332 13.9215 0.340332 9.00527C0.341082 6.61952 1.27033 4.38003 2.95633 2.69553C4.64233 1.01179 6.88333 0.084789 9.26683 0.0855385C14.1846 0.0877889 18.1858 4.08903 18.1858 9.00527C18.1851 10.4978 17.8108 11.9685 17.0998 13.2713L18.3403 18ZM15.4851 13.0523C16.2313 11.7953 16.6783 10.5953 16.6791 9.00827C16.6791 4.92228 13.3536 1.59379 9.26533 1.59154C5.16883 1.59004 1.84783 4.90278 1.84633 9.00227C1.84633 13.0913 5.17183 16.4175 9.25933 16.419C10.9281 16.4198 12.1776 15.9308 13.4848 15.1095L16.2208 15.8588L15.4851 13.0523ZM11.3871 4.51203C11.2941 4.56753 11.2386 4.71603 11.1268 4.93953C11.0151 5.16228 10.4758 6.25803 10.4016 6.46278C10.3273 6.66678 10.2898 6.81527 10.5133 6.96452C10.7361 7.11302 11.2386 7.54052 11.3871 7.67027C11.5356 7.80002 11.5543 7.93052 11.4426 8.15327C11.3308 8.37602 11.0961 9.09452 10.3363 9.94577C9.74533 10.608 9.01558 11.0558 8.79208 11.1855C8.56933 11.3153 8.44858 11.199 8.33758 11.088C8.23783 10.9875 8.07733 10.8653 7.94683 10.7535C7.81783 10.6403 7.72483 10.6035 7.57558 10.5285C7.42708 10.4543 7.29658 10.491 7.18483 10.5473C7.07383 10.6035 5.97658 11.049 5.53033 11.2343C5.09608 11.4158 5.15458 11.5995 5.14783 11.736L5.14033 12.1635C5.14033 12.312 5.19583 12.5535 5.41933 12.7575C5.64283 12.9615 6.18133 13.5375 7.27858 13.5375C8.37583 13.5375 9.43558 12.7388 9.58408 12.6278C9.73258 12.516 11.9841 11.0565 12.9493 8.82077C13.1788 8.28902 13.3161 7.87352 13.4188 7.55027C13.5883 7.01627 13.5643 6.53027 13.5073 6.14628C13.4436 5.71803 12.9681 4.82778 12.4476 4.64178C11.9263 4.45578 11.4801 4.45578 11.3871 4.51203Z" fill="white"/>
</svg>
